<?xml version="1.0" encoding="UTF-8" standalone="no"?>
<!-- Created with Inkscape (http://www.inkscape.org/) -->

<svg
   xmlns:dc="http://purl.org/dc/elements/1.1/"
   xmlns:cc="http://creativecommons.org/ns#"
   xmlns:rdf="http://www.w3.org/1999/02/22-rdf-syntax-ns#"
   xmlns:svg="http://www.w3.org/2000/svg"
   xmlns="http://www.w3.org/2000/svg"
   xmlns:sodipodi="http://sodipodi.sourceforge.net/DTD/sodipodi-0.dtd"
   xmlns:inkscape="http://www.inkscape.org/namespaces/inkscape"
   id="svg2"
   inkscape:version="0.48.4 r9939"
   viewBox="0 0 398.5 281.47"
   version="1.1"
   sodipodi:docname="BookLeft.eps"
   width="100%"
   height="100%">
  <defs
     id="defs4" />
  <sodipodi:namedview
     id="base"
     bordercolor="#666666"
     inkscape:pageshadow="2"
     inkscape:window-y="-8"
     pagecolor="#ffffff"
     inkscape:window-maximized="1"
     inkscape:zoom="1.8770391"
     inkscape:window-x="-8"
     inkscape:window-height="1137"
     showgrid="false"
     borderopacity="1.0"
     inkscape:current-layer="layer3"
     inkscape:cx="224.58165"
     inkscape:cy="112.83825"
     showguides="true"
     inkscape:guide-bbox="true"
     inkscape:window-width="1920"
     inkscape:pageopacity="0.0"
     inkscape:document-units="mm" />
  <g
     id="layer1"
     inkscape:label="cover"
     inkscape:groupmode="layer"
     transform="translate(-158.04 -160.62)">
    <path
       id="rect3819"
       inkscape:connector-curvature="0"
       sodipodi:nodetypes="csssccsssc"
       style="fill:#a23f08;stroke:#000000;stroke-width:0.49105212"
       d="m 165.30074,175.37119 179.76969,0 c 2.15758,0 3.85961,3.55236 3.8946,7.96362 l 1.93848,244.42601 c 0.035,4.41126 -1.73697,7.9636 -3.8946,7.9636 -61.92661,-4.64641 -128.7559,0.14786 -183.64346,0 -2.15763,0 -3.92959,-3.55234 -3.8946,-7.9636 l 1.93849,-244.42601 c 0.035,-4.41126 1.73697,-7.96362 3.89459,-7.96362 z" />
  </g>
  <g
     id="layer3"
     inkscape:label="brasscorners"
     inkscape:groupmode="layer"
     transform="translate(-158.04 -160.62)">
    <path
       id="rect7186"
       inkscape:connector-curvature="0"
       sodipodi:nodetypes="cscccccscsc"
       style="stroke:#000000;stroke-width:.53150;stroke-linecap:round;fill:#a5591d"
       d="m166.93 172.28 34.754 0.96278c1.5753 0.0436 2.8084 1.3472 2.7647 2.9228 0.34768 3.7651-33.05 5.0474-33.05 5.0474s-0.48338 18.492-0.45515 25.198c-0.58315 2.8393-2.2082 3.0482-3.7259 3.5279-1.2167 4.8519-1.1024 4.3784-4.3021 4.29-0.28477-0.0119-0.75972-0.6342-0.75093-0.94054 0.36614-12.754 0.71269-25.51 1.066-38.265 0.0437-1.5756 1.347-2.8089 2.9223-2.7652z" />
    <path
       id="path3777"
       d="m166.93 172.28 34.754 0.96278c1.5753 0.0436 2.8084 1.3472 2.7647 2.9228 0.34768 3.7651-33.05 5.0474-33.05 5.0474s-0.48338 18.492-0.45515 25.198c-0.58314 2.8393-2.2081 3.0482-3.7259 3.5279-1.2167 4.8519-1.1024 4.3784-4.3021 4.29-0.28477-0.0119-0.75972-0.6342-0.75093-0.94054 0.36614-12.754 0.71269-25.51 1.066-38.265 0.0437-1.5756 1.347-2.8089 2.9223-2.7652z"
       sodipodi:nodetypes="cscccccscsc"
       style="fill:#a5591d"
       inkscape:connector-curvature="0" />
    <path
       id="path3003"
       d="m166.93 172.28 23.176 0.54541c3.7401 3.7837-13.971 6.1208-17.714 6.4883-1.4285 0.20721-2.767 1.5199-3.2105 3.0727-0.28566 13.537-0.11857 22.157-1.8069 21.882-1.2167 4.8519-1.1024 4.3784-4.3021 4.29-0.28477-0.0119-0.75972-0.63421-0.75092-0.94053 0.36613-12.754 0.5556-19.84 0.90895-32.595 0.0436-1.5756 1.347-2.8089 2.9223-2.7652z"
       sodipodi:nodetypes="ccccccscsc"
       style="fill:#d3a325"
       inkscape:connector-curvature="0" />
    <path
       id="path3005"
       inkscape:connector-curvature="0"
       sodipodi:nodetypes="csccccscsc"
       style="fill:#f1dd48"
       d="m166.93 172.28 10.54 0.29198c1.5753 0.0436 2.8084 1.3472 2.7647 2.9228-0.0758 0.9353-3.541 1.4087-7.9673 1.808-3.0342 1.1118-3.9743 2.9261-4.764 5.0646-1.3479 6.1038-0.72037 7.8452-3.9201 7.7568-0.28477-0.0119-0.75972-0.63421-0.75092-0.94054 0.36613-12.754 0.0449-1.405 0.39826-14.16 0.0437-1.5756 1.347-2.8089 2.9223-2.7652z" />
    <path
       id="path3007"
       d="m166.93 172.28 4.2884 0.1188c5.9965 0.023-3.1451 4.365-3.6722 4.8996-0.80594 0.81758-4.5948 8.4171-4.5276 5.1582 0.36614-12.754-0.14143 5.3221 0.21191-7.4329 0.0437-1.5756 1.347-2.8089 2.9223-2.7652z"
       sodipodi:nodetypes="ccsccsc"
       style="fill:#fffea3"
       inkscape:connector-curvature="0" />
    <path
       id="path3779"
       d="m 158.31,432.83 v -34.773 c 0,-1.5762 1.2687,-2.8451 2.8446,-2.8451 3.7534,-0.45188 5.9597,32.903 5.9597,32.903 0,0 14.211,2.9207 20.912,2.7068 1.2402,0.28176 3.6085,0.62061 5.0758,0.78909 4.883,1.082 7.2444,0.86959 7.2446,4.0711 -0.004,0.28504 -0.61282,0.77713 -0.91922,0.77681 -12.758,-0.0128 -25.516,-0.006 -38.273,-0.006 -1.5759,0 -2.8446,-1.2689 -2.8446,-2.8451 z"
       sodipodi:nodetypes="cscccccscsc"
       style="fill:#a5591d;stroke:#000000;stroke-width:0.53149998;stroke-linecap:round"
       inkscape:connector-curvature="0" />
    <path
       id="path3781"
       inkscape:connector-curvature="0"
       sodipodi:nodetypes="cscccccscsc"
       style="fill:#a5591d"
       d="m 158.31,432.83 v -34.773 c 0,-1.5762 1.2687,-2.8451 2.8446,-2.8451 3.7534,-0.45188 5.9597,32.903 5.9597,32.903 0,0 9.0919,-0.0289 15.793,-0.24286 0.96198,1.2835 4.9439,1.6224 5.4654,3.1265 6.6079,0.91508 12.475,1.0922 11.974,4.6833 -0.004,0.28504 -0.61282,0.77713 -0.91923,0.77682 -12.758,-0.0128 -25.516,-0.006 -38.273,-0.006 -1.5759,0 -2.8446,-1.2689 -2.8446,-2.8451 z" />
    <path
       id="path3783"
       inkscape:connector-curvature="0"
       sodipodi:nodetypes="ccccccscsc"
       style="fill:#d3a325"
       d="m 158.31,432.83 -0.0966,-29.953 c 3.6781,-3.8441 6.5042,20.565 6.9752,24.298 0.24664,1.4224 1.5957,2.7243 3.1599,3.1248 13.537,-0.0893 18.296,-0.49515 18.068,1.2004 4.8829,1.082 4.4065,0.98089 4.4068,4.1824 -0.004,0.28504 -0.61282,0.77713 -0.91922,0.77682 -12.758,-0.0128 -15.991,-0.006 -28.749,-0.006 -1.5759,0 -2.8446,-1.2689 -2.8446,-2.8451 z" />
    <path
       id="path3785"
       d="m 158.31,432.83 v -12.801 c 0,-1.5762 1.2687,-2.8451 2.8446,-2.8451 0.93687,0.0499 1.5059,5.7568 2.0276,10.171 1.1952,3.0028 2.0009,3.8924 7.355,4.6227 6.1377,1.1786 7.8608,0.50293 7.861,3.7044 -0.004,0.28504 -0.61282,0.77713 -0.91922,0.77682 -12.758,-0.0128 -3.5667,-0.006 -16.324,-0.006 -1.5759,0 -2.8446,-1.2689 -2.8446,-2.8451 z"
       sodipodi:nodetypes="csccccscsc"
       style="fill:#f1dd48"
       inkscape:connector-curvature="0" />
    <path
       id="path3787"
       inkscape:connector-curvature="0"
       sodipodi:nodetypes="ccsccsc"
       style="fill:#fffea3"
       d="m 158.31,432.83 v -4.2908 c -0.14305,-5.9959 4.4496,3.0236 4.9986,3.5357 0.83944,0.78312 8.5396,4.3607 5.2807,4.3838 -12.758,-0.0128 5.3231,-0.006 -7.4346,-0.006 -1.5759,0 -2.8446,-1.2689 -2.8446,-2.8451 z" />
    <path
       id="path3801"
       inkscape:connector-curvature="0"
       sodipodi:nodetypes="csccc"
       style="fill:#f1dd48"
       d="m 158.22,405.25 v 5.5097 c 0,0.8235 0.95641,1.4864 2.1444,1.4864 0.85196,-3.0001 -2.0172,-10.323 -2.1444,-7.4026 z" />
  </g>
  <g
     id="layer2"
     inkscape:label="pages"
     inkscape:groupmode="layer"
     transform="translate(-158.04 -160.62)">
    <path
       id="path3830"
       inkscape:connector-curvature="0"
       sodipodi:nodetypes="cccsssssssssssssssssccccccccccccccccccccccccccccccccccccccccccccccccccccccccc"
       style="stroke:#000000;stroke-width:.35433;fill:#b97c2c"
       d="m176.21 183.46c40.23 1.2139 138.05-24.812 165.91-0.33433l14.365 254.98c-0.52601-0.40003-0.40393 0.14207-0.94089-0.22191-6.8838-4.6662-14.622-6.539-22.054-9.9232-2.1534-0.9806-7.0655-2.0891-9.0538-2.9046-3.8726-1.5884-8.1918-1.5314-12.102-2.4725-2.8297-0.68102-4.6371-0.18436-7.5148-0.63801-8.0628-1.2711-19.646-0.50433-27.601-0.55319-2.0974-0.0128-4.8799-0.49534-6.9797-0.42877-1.9308 0.0613-3.1788 0.66569-5.1064 0.78573-4.7064 0.29311-9.3956 0.74969-14.031 1.3116-1.8768 0.22752-3.0623-0.55142-4.919-0.29323-2.9065 0.40419-6.4677 1.865-9.3096 2.3201-5.151 0.82493-10.18 1.7092-15.033 2.5647-2.8365 0.50011-5.7831 0.47851-8.4872 0.94133-2.7578 0.47198-5.2704 1.4273-7.8671 1.8235-8.5752 1.3083-16.208 2.1016-22.472 1.7071-1.3604-0.0856-2.8269-0.90983-4.0539-1.1144-1.288-0.21475-2.3295 0.1837-3.4606-0.17762-4.1405-1.3226-7.1968-3.6805-8.9218-7.4644l-0.68696-4.1143 0.57701-4.1465-0.12689-6.1206-0.27815-2.9835 0.41622-3.1519-0.17724-3.9567-0.20121-2.8414 0.32786-2.7863 0.1191-5.2942-0.0177-2.1736 0.12519-2.6051 0.13059-3.5553 0.43957-2.4132-0.3206-2.8734-0.0393-9.038 0.55826-1.7244-0.46956-2.2171 0.39187-10.597 0.28606-2.4698-0.16324-2.9873 0.1722-7.0516 0.36604-3.903 0.10336-6.7736 0.56559-1.8795-0.46554-2.5659 0.0305-10.423-0.46034-2.8975 0.90995-3.4494-0.16988-8.548 0.16307-3.1242-0.0128-3.5344-0.42043-7.6652 0.83533-8.3065-0.27274-4.4978 0.4573-3.7032 0.18421-8.1856 0.37483-3.2477-0.21731-3.7519 0.21107-9.3794 0.18733-2.2779-0.0452-4.0357c1.2662-2.2674-0.2097-4.9615 0.16146-7.174l0.41392-2.8912 0.17427-2.4978-0.31959-6.5484c0.007-1.3067 0.49808-2.9126 0.53822-4.2185l-0.29233-6.7072-0.15641-2.7718 0.25208-2.9804-0.17695-3.218-0.23339-3.0967 0.33307-4.0302-0.50513-2.7029 0.96266-2.3462c-0.44424-3.0461 3.2771-1.5333 5.0912-1.4763z" />
    <path
       id="path3826"
       inkscape:connector-curvature="0"
       sodipodi:nodetypes="cccsssssssssssscccccccccccccccccccccccccccccccccccccccccccccccccccccc"
       style="fill:#d7a55c;stroke:#000000;stroke-width:0.35433"
       d="m 179.04,180.63 c 40.23,1.2139 124.50388,3.50526 151.98716,20.07123 l 25.20614,237.83073 c -16.525,-11.503 -42.262,-20.624 -72.223,-19.035 -2.0945,0.11104 -7.6214,-0.28441 -9.7211,-0.21785 -1.9308,0.0613 -4.8659,-0.17797 -6.7934,-0.0579 -4.7064,0.29311 -7.076,0.9606 -11.711,1.5225 -1.8768,0.22752 -7.9126,0.0813 -9.7692,0.33952 -2.9065,0.40419 -5.8351,1.865 -8.677,2.3201 -5.151,0.82493 -10.391,1.4983 -15.243,2.3538 -2.8365,0.50011 -5.7831,0.68943 -8.4872,1.1522 -2.7578,0.47198 -6.5356,1.8491 -9.1324,2.2453 -8.5752,1.3083 -12.834,0.83609 -19.098,0.4416 -1.3604,-0.0857 -2.8269,-0.90983 -4.0539,-1.1144 -1.288,-0.21475 -2.3295,0.1837 -3.4606,-0.17762 -4.1405,-1.3226 -7.1968,-3.6805 -8.9218,-7.4644 l -0.21809,-6.5158 0.277,-3.0962 -0.12704,-3.5699 0.47192,-2.2333 -0.33385,-3.9021 0.12279,-5.4571 0.39885,-2.3912 -0.27221,-3.2364 0.1191,-5.2942 0.28232,-2.3237 -0.17477,-2.4551 0.13059,-5.8058 0.73959,-2.7133 -0.62062,-2.5733 0.26079,-11.589 0.55826,-1.7244 -0.46956,-2.2171 0.24186,-10.747 0.7361,-3.07 -0.61328,-2.3871 0.34155,-15.178 0.56559,-1.8795 -0.46555,-2.566 0.18056,-8.0228 0.73976,-1.6972 -0.59018,-4.9498 0.28016,-12.449 0.91314,-3.1242 -0.7633,-3.5344 0.26489,-11.771 0.17729,-2.2472 0.007,-5.9538 0.18421,-8.1856 0.67485,-3.0976 -0.51734,-3.902 0.21108,-9.3794 1.0874,-3.6283 -0.94533,-2.6853 0.16146,-7.174 0.41392,-2.8912 -0.27577,-3.248 0.13045,-5.7982 0.0308,-2.0506 0.0574,-1.8679 0.1577,-7.0072 0.74367,-1.8716 -0.648,-2.3802 0.12308,-5.4686 0.21665,-2.0464 -0.11698,-2.3798 0.15751,-6.9996 c -0.44424,-3.0461 3.2771,-1.5333 5.0912,-1.4763 z" />
    <path
       id="path3828"
       d="m 181.88,177.79 c 40.23,1.2139 116.20059,-9.36673 144.06059,15.11094 l 30.04521,245.22473 c -5.7115,-5.9866 -14.547,-8.713 -22.559,-12.361 -2.1534,-0.98061 -6.0956,-3.0114 -8.0839,-3.827 -3.8726,-1.5884 -8.4667,-2.173 -12.377,-3.1141 -2.8297,-0.68102 -4.6371,-0.18435 -7.5148,-0.638 -8.0628,-1.2711 -15.468,-0.94133 -23.423,-0.9902 -2.0974,-0.0128 -4.8799,-0.49533 -6.9797,-0.42877 -1.9308,0.0613 -3.1788,0.66569 -5.1064,0.78574 -4.7064,0.29311 -9.3956,0.74968 -14.031,1.3116 -1.8768,0.22752 -3.0623,-0.55142 -4.919,-0.29323 -2.9065,0.40419 -6.4677,1.865 -9.3096,2.3201 -5.151,0.82493 -10.18,1.7092 -15.032,2.5647 -2.8365,0.50011 -5.7831,0.47852 -8.4872,0.94133 -2.7578,0.47198 -5.2704,1.4273 -7.8671,1.8235 -8.5752,1.3083 -16.208,2.1016 -22.472,1.7071 -1.3604,-0.0856 -2.8269,-0.90983 -4.0539,-1.1144 -1.288,-0.21475 -2.3295,0.1837 -3.4606,-0.17762 -4.1406,-1.3226 -7.1969,-3.6805 -8.9218,-7.4644 l 0.17304,-5.5888 0.57702,-4.1465 -0.1269,-6.1206 -0.27815,-2.9834 0.41622,-3.1519 -0.17723,-3.9567 -0.20121,-2.8413 0.32785,-2.7863 0.1191,-5.2942 -0.0177,-2.1737 0.1252,-2.6051 0.13058,-3.5553 0.43957,-2.4132 -0.32059,-2.8734 -0.0393,-9.038 0.55826,-1.7244 -0.46956,-2.2171 0.39188,-10.597 0.28605,-2.4698 -0.16324,-2.9873 0.1722,-7.0516 0.36604,-3.903 0.10336,-6.7736 0.56559,-1.8795 -0.46554,-2.5659 0.0305,-10.423 -0.46034,-2.8975 0.90995,-3.4494 -0.16988,-8.548 0.16307,-3.1242 -0.0128,-3.5344 -0.42042,-7.6652 0.83532,-8.3065 -0.27274,-4.4978 0.45731,-3.7032 0.18421,-8.1856 0.37483,-3.2477 -0.21732,-3.7519 0.21108,-9.3794 0.18733,-2.2779 -0.0452,-4.0357 c 1.2662,-2.2674 -0.20971,-4.9615 0.16145,-7.174 l 0.41392,-2.8912 0.17427,-2.4978 -0.31959,-6.5483 c 0.007,-1.3067 0.49809,-2.9126 0.53823,-4.2185 l -0.29234,-6.7072 -0.15641,-2.7718 0.25209,-2.9804 -0.17695,-3.218 -0.2334,-3.0967 0.33307,-4.0302 -0.50513,-2.7029 0.96267,-2.3462 c -0.44425,-3.0461 3.2771,-1.5333 5.0912,-1.4763 z"
       sodipodi:nodetypes="cccssssssssssssssssccccccccccccccccccccccccccccccccccccccccccccccccccccccccc"
       style="fill:#f1d291;stroke:#000000;stroke-width:0.35433"
       inkscape:connector-curvature="0" />
    <path
       id="path3824"
       inkscape:connector-curvature="0"
       sodipodi:nodetypes="csccsssccccccccccccccccccccccccccccccccccccccccccccccccccccccccccc"
       style="fill:#f1d291;stroke:#000000;stroke-width:0.35433"
       d="m 184.72,174.95 c 26.34815,0.79503 75.13693,-0.39894 114.9784,-0.79089 20.99097,-0.2065 39.49831,-0.19038 50.9316,0.45655 l 5.8454,263.24 c -5.7115,-5.9865 -6.16193,-1.23934 -14.17393,-4.88794 -2.1534,-0.98061 -4.96739,-1.14477 -7.106,-1.35663 -4.62603,-0.45825 -9.9592,-1.03389 -13.89814,-1.8462 -12.43591,-2.56459 -60.95584,-2.82134 -63.83354,-3.275 -43.17663,0.0744 -36.37326,3.83835 -75.44483,2.77018 -4.1405,-1.3226 -10.02216,-2.92707 -7.79166,-12.92675 l 0.17304,-5.5888 0.57701,-4.1465 -0.1269,-6.1206 -0.27814,-2.9834 0.41622,-3.1519 -0.17724,-3.9567 -0.20121,-2.8414 0.32786,-2.7863 0.1191,-5.2942 -0.0177,-2.1736 0.1252,-2.6052 0.13059,-3.5553 0.43957,-2.4132 -0.3206,-2.8734 -0.0393,-9.038 0.55826,-1.7244 -0.46956,-2.2171 0.39187,-10.597 0.28606,-2.4698 -0.16324,-2.9873 0.1722,-7.0516 0.36604,-3.903 0.10336,-6.7736 0.56559,-1.8795 -0.46555,-2.566 0.0305,-10.423 -0.46034,-2.8975 0.90995,-3.4494 -0.16988,-8.548 0.16307,-3.1242 -0.0128,-3.5344 -0.42043,-7.6652 0.83533,-8.3065 -0.27274,-4.4978 0.4573,-3.7032 0.18421,-8.1856 0.37483,-3.2477 -0.21732,-3.7519 0.21108,-9.3794 0.18733,-2.2779 -0.0452,-4.0357 c 1.2662,-2.2674 -0.2097,-4.9615 0.16146,-7.174 l 0.41391,-2.8912 0.17428,-2.4978 -0.31959,-6.5484 c 0.007,-1.3067 0.49808,-2.9126 0.53822,-4.2185 l -0.29234,-6.7072 -0.1564,-2.7718 0.25208,-2.9804 -0.17695,-3.218 -0.23339,-3.0967 0.33307,-4.0302 -0.50513,-2.7029 0.96266,-2.3462 c -0.44425,-3.0461 3.2771,-1.5333 5.0912,-1.4763 z" />
  </g>
  <g
     id="layer5"
     inkscape:label="upperpage"
     inkscape:groupmode="layer"
     transform="translate(-158.04 -160.62)" />
  <g
     id="layer4"
     inkscape:label="text"
     inkscape:groupmode="layer"
     transform="translate(-158.04 -160.62)" />
  <metadata
     id="metadata266">
    <rdf:RDF>
      <cc:Work>
        <dc:format>image/svg+xml</dc:format>
        <dc:type
           rdf:resource="http://purl.org/dc/dcmitype/StillImage" />
        <cc:license
           rdf:resource="http://creativecommons.org/licenses/publicdomain/" />
        <dc:publisher>
          <cc:Agent
             rdf:about="http://openclipart.org/">
            <dc:title>Openclipart</dc:title>
          </cc:Agent>
        </dc:publisher>
        <dc:title></dc:title>
      </cc:Work>
      <cc:License
         rdf:about="http://creativecommons.org/licenses/publicdomain/">
        <cc:permits
           rdf:resource="http://creativecommons.org/ns#Reproduction" />
        <cc:permits
           rdf:resource="http://creativecommons.org/ns#Distribution" />
        <cc:permits
           rdf:resource="http://creativecommons.org/ns#DerivativeWorks" />
      </cc:License>
    </rdf:RDF>
  </metadata>
</svg>
